<?xml version="1.0"?>
<svg xmlns="http://www.w3.org/2000/svg" xmlns:xlink="http://www.w3.org/1999/xlink" xmlns:svgjs="http://svgjs.com/svgjs" version="1.1" width="512" height="512" x="0" y="0" viewBox="0 0 512 512" style="enable-background:new 0 0 512 512" xml:space="preserve"><g>
<g xmlns="http://www.w3.org/2000/svg">
	<g>
		<g>
			<path d="M8,176c4.418,0,8-3.582,8-8V16h152c4.418,0,8-3.582,8-8s-3.582-8-8-8H8C3.582,0,0,3.582,0,8v160     C0,172.418,3.582,176,8,176z" fill="#ffffff" data-original="#000000" style=""/>
			<path d="M168,496H16V344c0-4.418-3.582-8-8-8s-8,3.582-8,8v160c0,4.418,3.582,8,8,8h160c4.418,0,8-3.582,8-8S172.418,496,168,496     z" fill="#ffffff" data-original="#000000" style=""/>
			<path d="M504,336c-4.418,0-8,3.582-8,8v152H344c-4.418,0-8,3.582-8,8s3.582,8,8,8h160c4.418,0,8-3.582,8-8V344     C512,339.582,508.418,336,504,336z" fill="#ffffff" data-original="#000000" style=""/>
			<path d="M504,0H344c-4.418,0-8,3.582-8,8s3.582,8,8,8h152v152c0,4.418,3.582,8,8,8s8-3.582,8-8V8C512,3.582,508.418,0,504,0z" fill="#ffffff" data-original="#000000" style=""/>
			<path d="M199.2,88H96c-4.418,0-8,3.582-8,8v103.2c0,4.418,3.582,8,8,8s8-3.582,8-8V104h95.2c4.418,0,8-3.582,8-8     S203.618,88,199.2,88z" fill="#ffffff" data-original="#000000" style=""/>
			<path d="M199.2,408H104v-95.2c0-4.418-3.582-8-8-8s-8,3.582-8,8V416c0,4.418,3.582,8,8,8h103.2c4.418,0,8-3.582,8-8     S203.618,408,199.2,408z" fill="#ffffff" data-original="#000000" style=""/>
			<path d="M424,416V312.8c0-4.418-3.582-8-8-8s-8,3.582-8,8V408h-95.2c-4.418,0-8,3.582-8,8s3.582,8,8,8H416     C420.418,424,424,420.418,424,416z" fill="#ffffff" data-original="#000000" style=""/>
			<path d="M312.8,104H408v95.2c0,4.418,3.582,8,8,8s8-3.582,8-8V96c0-4.418-3.582-8-8-8H312.8c-4.418,0-8,3.582-8,8     S308.382,104,312.8,104z" fill="#ffffff" data-original="#000000" style=""/>
			<path d="M96,280c4.418,0,8-3.582,8-8v-32c0-4.418-3.582-8-8-8s-8,3.582-8,8v32C88,276.418,91.582,280,96,280z" fill="#ffffff" data-original="#000000" style=""/>
			<path d="M416,232c-4.418,0-8,3.582-8,8v32c0,4.418,3.582,8,8,8s8-3.582,8-8v-32C424,235.582,420.418,232,416,232z" fill="#ffffff" data-original="#000000" style=""/>
			<path d="M272,408h-32c-4.418,0-8,3.582-8,8s3.582,8,8,8h32c4.418,0,8-3.582,8-8S276.418,408,272,408z" fill="#ffffff" data-original="#000000" style=""/>
			<path d="M280,88h-48c-4.418,0-8,3.582-8,8s3.582,8,8,8h48c4.418,0,8-3.582,8-8S284.418,88,280,88z" fill="#ffffff" data-original="#000000" style=""/>
		</g>
	</g>
</g>
<g xmlns="http://www.w3.org/2000/svg">
</g>
<g xmlns="http://www.w3.org/2000/svg">
</g>
<g xmlns="http://www.w3.org/2000/svg">
</g>
<g xmlns="http://www.w3.org/2000/svg">
</g>
<g xmlns="http://www.w3.org/2000/svg">
</g>
<g xmlns="http://www.w3.org/2000/svg">
</g>
<g xmlns="http://www.w3.org/2000/svg">
</g>
<g xmlns="http://www.w3.org/2000/svg">
</g>
<g xmlns="http://www.w3.org/2000/svg">
</g>
<g xmlns="http://www.w3.org/2000/svg">
</g>
<g xmlns="http://www.w3.org/2000/svg">
</g>
<g xmlns="http://www.w3.org/2000/svg">
</g>
<g xmlns="http://www.w3.org/2000/svg">
</g>
<g xmlns="http://www.w3.org/2000/svg">
</g>
<g xmlns="http://www.w3.org/2000/svg">
</g>
</g></svg>
